# xmcd
#
# Track frame offsets: 
#        150
#        12700
#        23872
#        35572
#        48780
#        61217
#        72582
#        85270
#        96552
#        108100
#        115480
#        127992
#        140155
#        150985
#        157925
#        172047
#        188302
#        198440
#        211742
#        225705
#        238507
#        251012
#
# Disc length: 3531 seconds
#
# Revision: 0
# Processed by: cddbd v1.4PL0 Copyright (c) Steve Scherf et al.
# Submitted via: ExactAudioCopy v0.95a4
#
DISCID=2a0dc916
DTITLE=Elmore James - The Complete Fire And Enjoy Recordings [Disc 2]
DYEAR=1995
DGENRE=Blues
TTITLE0=Got To Move
TTITLE1=Person To Person
TTITLE2=So Unkind
TTITLE3=My Kind Of Woman
TTITLE4=Woke Up Screamin' and Cryin' [Unknown Vocalist]
TTITLE5=Do It If You Wanna [Unknown Vocalist]
TTITLE6=Shake Your Money Maker
TTITLE7=Look On Yonder Wall
TTITLE8=Poor Little Angel Child [Vocal: Sam Myers]
TTITLE9=Mean Mistreatin' Mama [Take 1 - Incomplete]
TTITLE10=Mean Mistreatin' Mama [Take 2 - Alternate]
TTITLE11=Mean Mistreatin' Mama
TTITLE12=Sunnyland Train
TTITLE13=You Know You're Wrong [Take 1 - Incomplete]
TTITLE14=You Know You're Wrong [Take 2 - Alternate]
TTITLE15=You Know You're Wrong [Take 3 - Master]
TTITLE16=Going Back Home Again
TTITLE17=Look Up On The Wall
TTITLE18=Find My Kind Of Woman [Take 1]
TTITLE19=Find My Kind Of Woman [Take 3]
TTITLE20=Dust My Broom [Alternate Take]
TTITLE21=My Baby's Gone
EXTD=
EXTT0=
EXTT1=
EXTT2=
EXTT3=
EXTT4=
EXTT5=
EXTT6=
EXTT7=
EXTT8=
EXTT9=
EXTT10=
EXTT11=
EXTT12=
EXTT13=
EXTT14=
EXTT15=
EXTT16=
EXTT17=
EXTT18=
EXTT19=
EXTT20=
EXTT21=
PLAYORDER=
